<?xml version="1.0" encoding="utf-8"?>
<!-- Generator: Adobe Illustrator 24.1.2, SVG Export Plug-In . SVG Version: 6.00 Build 0)  -->
<svg version="1.1" id="Layer_1" xmlns="http://www.w3.org/2000/svg" xmlns:xlink="http://www.w3.org/1999/xlink" x="0px" y="0px"
	 viewBox="0 0 800 600" style="enable-background:new 0 0 800 600;" xml:space="preserve">
<style type="text/css">
	.st0{display:none;fill:#FFFFFF;}
	.st1{fill:#F5F5F5;}
	.st2{fill:#E0E0E0;}
	.st3{fill:#D7D7D7;}
	.st4{fill:#ECECEC;}
	.st5{fill:#FFFFFF;}
	.st6{fill:url(#SVGID_1_);}
	.st7{opacity:0.65;fill:url(#SVGID_2_);enable-background:new    ;}
	.st8{fill:#CFD8DC;}
	.st9{opacity:0.8;fill:url(#SVGID_3_);enable-background:new    ;}
	.st10{opacity:0.65;fill:url(#SVGID_4_);enable-background:new    ;}
	.st11{opacity:0.8;fill:url(#SVGID_5_);enable-background:new    ;}
	.st12{fill:#B0BEC5;}
	.st13{fill:none;stroke:#78909C;stroke-width:15;stroke-miterlimit:10;}
	.st14{fill:#607D8B;}
	.st15{fill:#78909C;}
	.st16{opacity:0.2;fill:url(#SVGID_6_);enable-background:new    ;}
	.st17{fill:#191919;}
	.st18{fill:#FFCCBC;}
	.st19{fill:#FFAB91;}
	.st20{fill:#212121;}
	.st21{fill:#EEEEEE;}
	.st22{fill:none;stroke:#212121;stroke-width:1.5;stroke-miterlimit:10;}
	.st23{fill:#5D4037;}
	.st24{fill:#6D4C41;}
	.st25{fill:#BDBDBD;}
	.st26{fill:#424242;}
	.st27{fill:none;stroke:#000000;stroke-width:1.5;stroke-miterlimit:10;}
	.st28{fill:#795548;}
	.st29{fill:#8D6E63;}
	.st30{fill:#86665A;}
</style>
<rect class="st0" width="800" height="600"/>
<g>
	<rect x="335" y="332" class="st1" width="30" height="80"/>
	<rect x="305" y="332" class="st2" width="30" height="80"/>
	<rect x="365" y="332" class="st2" width="30" height="80"/>
	<rect x="245" y="332" class="st2" width="30" height="80"/>
	<rect x="185" y="332" class="st2" width="30.1" height="80"/>
	<rect x="395" y="332" class="st1" width="30" height="80"/>
	<rect x="425" y="332" class="st2" width="30" height="80"/>
	<rect x="275" y="332" class="st1" width="30" height="80"/>
	<rect x="215" y="332" class="st1" width="30" height="80"/>
	<rect x="155" y="332" class="st1" width="30" height="80"/>
	<rect x="125" y="332" class="st2" width="30.1" height="80"/>
	<rect x="95" y="332" class="st1" width="30" height="80"/>
	<rect x="65" y="332" class="st2" width="30.1" height="80"/>
	<rect x="35" y="332" class="st1" width="30" height="80"/>
	<rect x="5" y="332" class="st2" width="30.1" height="80"/>
</g>
<g>
	<rect x="655" y="332" class="st2" width="30" height="80"/>
	<rect x="595" y="332" class="st2" width="30" height="80"/>
	<rect x="625" y="332" class="st1" width="30" height="80"/>
	<rect x="715" y="332" class="st2" width="30" height="80"/>
	<rect x="775" y="332" class="st2" width="25" height="80"/>
	<rect x="745" y="332" class="st1" width="30" height="80"/>
	<rect x="685" y="332" class="st1" width="30" height="80"/>
</g>
<rect y="292" class="st3" width="460" height="40"/>
<rect x="590" y="292" class="st3" width="210" height="40"/>
<rect class="st4" width="800" height="292"/>
<rect x="590" y="407" class="st2" width="210" height="15"/>
<rect y="407" class="st2" width="459" height="15"/>
<rect y="422" class="st5" width="800" height="178"/>
<radialGradient id="SVGID_1_" cx="1023.2463" cy="1086.7585" r="219.4983" gradientTransform="matrix(4.104905e-03 -1.29 -1.8588 -5.481793e-03 2415.8884 1627.6703)" gradientUnits="userSpaceOnUse">
	<stop  offset="0" style="stop-color:#F0F2F5;stop-opacity:0"/>
	<stop  offset="0.26" style="stop-color:#FFFFFF;stop-opacity:1.000000e-02"/>
	<stop  offset="0.4" style="stop-color:#F0F2F5;stop-opacity:4.000000e-02"/>
	<stop  offset="0.51" style="stop-color:#F0F2F5;stop-opacity:9.000000e-02"/>
	<stop  offset="0.6" style="stop-color:#F0F2F5;stop-opacity:0.17"/>
	<stop  offset="0.6858" style="stop-color:#F0F2F5;stop-opacity:0.27"/>
	<stop  offset="0.76" style="stop-color:#F0F2F5;stop-opacity:0.39"/>
	<stop  offset="0.83" style="stop-color:#F0F2F5;stop-opacity:0.53"/>
	<stop  offset="0.9" style="stop-color:#F0F2F5;stop-opacity:0.7"/>
	<stop  offset="0.96" style="stop-color:#F0F2F5;stop-opacity:0.88"/>
	<stop  offset="1" style="stop-color:#F0F2F5"/>
</radialGradient>
<rect class="st6" width="800" height="600"/>
<g>
	
		<linearGradient id="SVGID_2_" gradientUnits="userSpaceOnUse" x1="355" y1="-245" x2="355" y2="-116" gradientTransform="matrix(1 0 0 1 0 308)">
		<stop  offset="0" style="stop-color:#FFFFFF;stop-opacity:0"/>
		<stop  offset="1" style="stop-color:#FFFFFF"/>
	</linearGradient>
	<path class="st7" d="M449.8,63H260c0,0,57.1,129,95,129s95-129,95-129H449.8z"/>
	<rect x="340" y="202" class="st8" width="30" height="30"/>
	
		<linearGradient id="SVGID_3_" gradientUnits="userSpaceOnUse" x1="355" y1="-66" x2="355" y2="114" gradientTransform="matrix(1 0 0 1 0 308)">
		<stop  offset="0" style="stop-color:#FFFFFF"/>
		<stop  offset="1" style="stop-color:#FFFFFF;stop-opacity:0"/>
	</linearGradient>
	<path class="st9" d="M355,242c-37.6,3-95,180-95,180h190C450,422,392.6,245,355,242z"/>
</g>
<g>
	
		<linearGradient id="SVGID_4_" gradientUnits="userSpaceOnUse" x1="195" y1="-245" x2="195" y2="-116" gradientTransform="matrix(1 0 0 1 0 308)">
		<stop  offset="0" style="stop-color:#FFFFFF;stop-opacity:0"/>
		<stop  offset="1" style="stop-color:#FFFFFF"/>
	</linearGradient>
	<path class="st10" d="M289.8,63H100c0,0,57.1,129,95,129s95-129,95-129H289.8z"/>
	<rect x="180" y="202" class="st8" width="30" height="30"/>
	
		<linearGradient id="SVGID_5_" gradientUnits="userSpaceOnUse" x1="195" y1="-66" x2="195" y2="114" gradientTransform="matrix(1 0 0 1 0 308)">
		<stop  offset="0" style="stop-color:#FFFFFF"/>
		<stop  offset="1" style="stop-color:#FFFFFF;stop-opacity:0"/>
	</linearGradient>
	<path class="st11" d="M195,242c-37.6,3-95,180-95,180h190C290,422,232.6,245,195,242z"/>
</g>
<g>
	<rect x="460" y="171" class="st12" width="130" height="251"/>
	<polyline class="st13" points="462.5,422 462.5,174.5 587.5,174.5 587.5,422 	"/>
	<rect x="555" y="302" class="st14" width="15" height="34"/>
	<rect x="546" y="319" class="st15" width="20" height="4"/>
	<rect x="558" y="306" width="9" height="9"/>
</g>
<linearGradient id="SVGID_6_" gradientUnits="userSpaceOnUse" x1="289" y1="1278.37" x2="289" y2="1258.37" gradientTransform="matrix(1 0 0 1 0 -797.37)">
	<stop  offset="0" style="stop-color:#FFFFFF"/>
	<stop  offset="1" style="stop-color:#E0E0E0"/>
</linearGradient>
<path class="st16" d="M393,461L393,461c0,11-9,20-20,20H205c-11,0-20-9-20-20H393z"/>
<g>
	<path class="st17" d="M329.6,300.1l9.4,0.9c0,0,1.1,5.6-1.2,8.2s-3.4,3.7-5.8,3.8S326.9,305.2,329.6,300.1z"/>
	<path class="st18" d="M339,301c1.6,0.1,3.2,0,4.8-0.2c1.9-0.2,3.4-0.8,3.8-0.8c1,0,0.5,1.6-1.5,3c-1.1,0.8-2.3,1.4-3.6,1.6
		c0.5,1.2,1.1,2.3,1.8,3.4c3,3.8,7.5,3.6,6.7,4.5c-1.1,1.2-14.1,4.4-14.1,4.4c-2.3-2.1-4.3-4.4-6.2-6.9c-2.2-3.2-3.6-9-3.6-9H339z"
		/>
	<path class="st19" d="M338.8,314.9c-2,0.2-2.8,1.3-2,2c0.9,0.8,2.1,1.2,3.3,1.1c1.7-0.3,3.3-0.9,4.8-1.6c2.2-1.1,4.2-2.4,6-4
		C350.8,312.4,348.9,313.8,338.8,314.9z"/>
	<path class="st20" d="M295,256c2.3,0.8,4.6,1.5,7,2c4,0.5,9.1,1.1,13,5c2,2.1,3.5,4.7,4.4,7.4c0.9,2.4,2.9,8.2,3.6,10.6
		c0.9,3.1,5.1,10.1,7,12c3,3,9,8,9,8s-2.1-0.5-5.6,2.8c-3,2.9-3.6,6.2-1.9,9.1c0,0-10.6-7.9-12.6-9.9s-7-11-7-11s1,13,2,21
		s3,10,3,20c0.1,7.8-0.6,15.6-2.1,23.3L299,370h-37l-5-54l-6.4-5.7c-1.6-1.6-2.5-3.7-2.6-6c0-0.7,0-1.5,0.2-2.2
		c1.7-8.4,7.1-30.1,7.8-33.1c0.5-2,5.3-4.4,9.1-6.4c4-2.1,7.9-3.6,7.9-3.6L295,256z"/>
	<path d="M297,449.9v6c0,2.5-0.1,3.8,2.1,4.3c1.6,0.4,6.8,1.6,7.7,2c4.9,1.7,9.4,3.8,13.9,3.8c2,0,4.2-0.1,5.9-1.2
		c0,0-0.1-5.1-6.8-6.6c-8.2-2.4-9.6-10.5-9.6-10.5L297,449.9z"/>
	<polygon class="st21" points="274,258 273,270 280,286 292,302.9 296,291 299,278 297,263 286.5,268 	"/>
	<path class="st22" d="M286.1,299.4c0,0,1.9-7.8,1.9-28.4"/>
	<path class="st20" d="M314.9,356.3l1.9,42.8c0.1,2.3,0.2,4.5,0.2,6.8l-1.4,47.1c0,0-0.6,3.3-10.4,3.3s-10-3.2-10-3.2l-2.8-52.5
		l-6.2-47.9l9.8-1.8L314.9,356.3z"/>
	<polygon class="st17" points="267,300.6 265.2,298.2 267.5,287.2 269.2,297.9 	"/>
	<path d="M278,459.5c-0.1,1.9,0.1,2.2-1.3,3.4c-0.8,0.6-3.5,3-4.7,4.1c-1.3,1.5-2.8,2.8-4.4,4c-2.8,1.8-6.1,2.8-9.4,3
		c-0.1-0.7-0.2-1.4-0.2-2.1c0-1.8,0.2-4.2,1.7-5.8c4.3-4.6,6.9-6,8.2-10.1c0.8-2.6,1.1-5.2,0.9-7.9h9.1L278,459.5z"/>
	<path class="st17" d="M288.2,312l-0.2-13.3l4.1,4.2c0,0-2,36,12.5,54.6c1.5,2,10.4-1.5,10.4-1.5s-6.8,7.7-13.5,5.6
		C292.6,358.9,288.2,312,288.2,312z"/>
	<path class="st20" d="M284.9,406.8l-2.2,48.5c0,0,0.3,5.8-12.7,5.8c-7.2,0-8.3-4.2-8.3-4.2l-1.6-53l4-60.5l29.8,7.4L284.9,406.8z"
		/>
	<path class="st23" d="M279,306l-10,1.3l-6,12.7c0,0-7.7,36.3-8.3,42.7c-0.6,5.7-1.5,23.9-1.6,27.6c0,0.4,0.2,0.8,0.6,1L274,400
		l-2-76l-3-10L279,306z"/>
	<path class="st24" d="M265.5,311.5c0,0,4.3,31.1,3.7,46.3c-0.6,18.2,1.1,42.8,1.5,47.5c0,0.5,0.3,1,0.7,1.4c2.3,1.7,5.1,2.5,8,2.4
		c2.2,0.1,4.4-0.2,6.5-1c0.8-0.3,1.3-1.2,1.1-2c-0.6-7-2.9-39-2.9-55c0-18,1.9-37.8,1.9-37.8s-2.4-6.7-8.2-6.7
		S265.5,311.5,265.5,311.5z"/>
	<path class="st25" d="M290.4,266.9l-1.3-1.3c-0.9-0.8-2.2-0.8-3.1,0l0,0l0,0l-1.3,1.3c-0.9,0.9-0.9,2.3,0,3.1l1.3,1.3
		c0.9,0.9,2.3,0.9,3.1,0l1.3-1.3C291.2,269.2,291.2,267.8,290.4,266.9z"/>
	<circle class="st20" cx="287.5" cy="268.5" r="1.5"/>
	<path class="st5" d="M275.9,253.1L272,260c0,0-1,5,3,8c5.1,3.8,7,5,7,5c1.9-2.4,3.5-5,4.7-7.8c-3.3-0.5-6.4-2.1-8.8-4.4
		C273.6,256.7,275.9,253.1,275.9,253.1z"/>
	<path class="st5" d="M291,258l6,1l-4,12c-2.3,0-4.9-5.9-4.9-5.9c1.2-1.2,0.7-0.9,1.3-2C290.2,261.6,291.2,259.6,291,258z"/>
	<path class="st26" d="M295.4,256.1c0,0,6.6,5.9,8.6,13.9l-4,3l4,3l-12,26.9c0,0,1-3.9,2-21.9c1-19-3-23-3-23L295.4,256.1z"/>
	<path class="st18" d="M293,229c1.1,0,1.2,1.9,2,4c0.6,1.8,1.5,2.8,1.7,3.9s0.2,2.1,0.3,3.3s0.4,3,0.6,4.2c0.2,1,0.3,2.1,0.4,3.1
		c0,1.8,0,3.7-0.2,5.5c-0.6,3.3-6.8,5-6.8,5s1,7.3-4,7.3c-1.4,0-9.5,0.3-12.5-7.7c-2.4-6.3-2.6-4.6-2.6-4.6s2-2,2-9s4.9-15,12-15
		H293z"/>
	<path d="M273,228c2.5-2.5,5-4,11-4c9,0,10,4,10,6c0,1-2,2-2,2c-1.6-0.7-3.3-1-5-1c-4,0-5,1.2-5,3v3c0,3-1,3-1,5v5h-2c0,0,0-5-2.4-5
		c-1.9,0-2.6,1-2.6,3c0.2,1.8,0.9,3.6,2,5v4c0,5-4.5,6.5-6.5,6.5c-1.6-0.4-2.7-1.9-2.5-3.5c0-4,3.5-5.7,4.6-6.7
		c0.2-0.2,0.4-0.5,0.4-0.8v-1.1c0-0.2-0.1-0.5-0.2-0.6c-1.3-1.7-2.2-3.7-2.5-5.9c-0.2-0.9-0.2-1.9-0.2-2.9C269,234,270,231,273,228z
		"/>
	<path class="st26" d="M274.6,258.1L272,260l-3,13l4,3l-2,5c0,0,11,11.6,21,21.9C292,302.9,274.2,274.8,274.6,258.1z"/>
	<path class="st27" d="M302.6,290c2.7-0.1,5.3-0.7,7.8-1.6"/>
	<path class="st27" d="M304,326.5c3.6-0.1,7-1.4,9.8-3.6"/>
	<path class="st28" d="M279.7,310.6c4.4,6.8,0.8,34.6,3.9,40.3c0,0,10.4-0.6,10.4-3.9c-0.1-1.4-0.4-2.7-1-4l1-2
		C287.5,331.5,290.5,316.1,279.7,310.6z"/>
	<path class="st29" d="M299,341.4c-0.6-5.4-4.1-11.9-7-19.8c-2.1-5.8-6.5-13.8-11-18.6c-1.6-1.7-5-4-8-4c-2,0-4-1-7-1
		c-8,0-12.7,6.6-13.7,10.3c-3.6,13.8-6.3,33.7-6.3,33.7s-7,4-7,7s1.9,8.1,4.1,9.6s1.4-0.4,3.6,0.8c3.5,1.8,7.4,2.7,11.3,2.6
		c4.1-0.1,8.1-0.8,12-2l-3-8l4-2.1c0,0-2-21.1-2-34.1c0-4.2,3.6-10.6,9.6-6.3c0.4,0.3,0.8,0.7,1.1,1.1c10.9,5.5,6.8,22.9,13.3,32.4
		C295.5,343,299,342.5,299,341.4z"/>
	<path class="st5" d="M278,314.2V306c2.5,1.6,6.1,1,10,1c-0.8,3.4-1,16-1,16l-6.1-0.4L278,314.2z"/>
	<path class="st18" d="M281,311.9c0.7,0.6,2.8,2.2,2.8,2.2l1.3,1.3c0.8,0.8,1,1.9,0.8,2.9l-0.9,3.5c-0.3,0.9-0.9,1.7-1.8,2l-2.3,0.9
		c-0.7,0.3-1.4,0.3-2,0.1l-4.9-1.5c0,0-2.9-0.7-2.9-5.2s2.6-7.1,5.1-7.1C279.1,311,280.1,311.1,281,311.9z"/>
	<path class="st30" d="M260,305c0,0-3.5,1-6.2,13.4c-2.3,10.4-2.8,27.1-2.8,27.1v3.1c-0.1,0.5,0,1,0.3,1.4l0.8,0.8
		c0.2,0.2,0.5,0.2,0.7,0c0.1-0.1,0.1-0.2,0.1-0.4v-3.6c0,0,0.1-17.4,2.2-28.5C257.5,306.5,260,305,260,305z"/>
	<path class="st30" d="M266,303c0,0-5.5,3.6-6.6,17.1c-1.5,18.2-4.4,20.8-3,21.5s3.4,1.3,4.3-4c0.7-4,0.4-8,0.9-17.5
		C261.9,313.3,263.1,307.8,266,303z"/>
</g>
</svg>
