<?xml version="1.0" encoding="UTF-8"?>
<svg xmlns="http://www.w3.org/2000/svg" xmlns:xlink="http://www.w3.org/1999/xlink" width="256pt" height="256pt" viewBox="0 0 256 256" version="1.1">
<g id="surface25445281">
<path style=" stroke:none;fill-rule:nonzero;fill:rgb(100%,100%,100%);fill-opacity:1;" d="M 18 238 L 18 28 C 18 22.398438 22.398438 18 28 18 L 228 18 C 233.601562 18 238 22.398438 238 28 L 238 238 L 18 238 "/>
<path style=" stroke:none;fill-rule:nonzero;fill:rgb(44.313725%,76.078431%,100%);fill-opacity:1;" d="M 238 58 L 18 58 L 18 28 C 18 22.398438 22.398438 18 28 18 L 228 18 C 233.601562 18 238 22.398438 238 28 Z M 238 58 "/>
<path style=" stroke:none;fill-rule:nonzero;fill:rgb(44.313725%,76.078431%,100%);fill-opacity:1;" d="M 48 82.148438 C 46.449219 82.148438 44.898438 82.699219 43.800781 83.800781 C 42.601562 84.800781 42 86.398438 42 88 C 42 89.601562 42.601562 91.199219 43.800781 92.199219 C 44.800781 93.398438 46.398438 94 48 94 C 49.601562 94 51.199219 93.398438 52.199219 92.199219 C 53.398438 91.199219 54 89.601562 54 88 C 54 86.398438 53.398438 85 52.199219 83.800781 C 51.101562 82.699219 49.550781 82.148438 48 82.148438 M 94 82.148438 C 92.449219 82.148438 90.898438 82.699219 89.800781 83.800781 C 88.601562 84.800781 88 86.398438 88 88 C 88 89.601562 88.601562 91.199219 89.800781 92.199219 C 90.800781 93.398438 92.398438 94 94 94 C 95.601562 94 97.199219 93.398438 98.199219 92.199219 C 99.398438 91.199219 100 89.601562 100 88 C 100 86.398438 99.398438 85 98.199219 83.800781 C 97.101562 82.699219 95.550781 82.148438 94 82.148438 M 78 82 L 68 82 C 64.601562 82 62 84.601562 62 88 C 62 91.398438 64.601562 94 68 94 L 78 94 C 81.398438 94 84 91.398438 84 88 C 84 84.601562 81.398438 82 78 82 M 92.800781 125.398438 C 90.5 125.398438 88.199219 126.199219 86.601562 127.800781 C 85 129.398438 84 131.601562 84 134 C 84 136.199219 85 138.398438 86.601562 140 C 88.199219 141.601562 90.398438 142.601562 92.800781 142.601562 C 95.199219 142.601562 97.398438 141.800781 99 140.199219 C 100.601562 138.601562 101.601562 136.402344 101.601562 134 C 101.601562 131.601562 100.601562 129.398438 99 127.800781 C 97.398438 126.199219 95.101562 125.398438 92.800781 125.398438 "/>
<path style=" stroke:none;fill-rule:nonzero;fill:rgb(44.313725%,76.078431%,100%);fill-opacity:1;" d="M 154.699219 122.648438 C 152.300781 122.648438 149.898438 123.5 148.199219 125.199219 C 146.402344 127 145.402344 129.199219 145.402344 131.800781 C 145.402344 134.398438 146.402344 136.597656 148.199219 138.398438 C 150 140.199219 152.398438 141.199219 154.800781 141.199219 C 157.199219 141.199219 159.597656 140.199219 161.199219 138.402344 C 162.996094 136.601562 163.996094 134.402344 163.996094 131.800781 C 163.996094 129.199219 162.996094 127.003906 161.199219 125.203125 C 159.5 123.5 157.101562 122.648438 154.699219 122.648438 M 179.300781 122.648438 C 176.898438 122.648438 174.5 123.5 172.800781 125.199219 C 171 127 170 129.199219 170 131.800781 C 170 134.398438 171 136.597656 172.800781 138.398438 C 174.601562 140.199219 177 141.199219 179.398438 141.199219 C 181.800781 141.199219 184.199219 140.199219 185.800781 138.402344 C 187.597656 136.601562 188.597656 134.402344 188.597656 131.800781 C 188.597656 129.199219 187.597656 127.003906 185.800781 125.203125 C 184.101562 123.5 181.699219 122.648438 179.300781 122.648438 "/>
<path style=" stroke:none;fill-rule:nonzero;fill:rgb(44.313725%,76.078431%,100%);fill-opacity:1;" d="M 201.199219 125.199219 C 198.898438 125.199219 196.601562 126 195 127.601562 C 193.398438 129.199219 192.398438 131.398438 192.398438 133.800781 C 192.398438 136.199219 193.398438 138.402344 195 140.003906 C 196.601562 141.601562 198.800781 142.601562 201.199219 142.601562 C 203.601562 142.601562 205.800781 141.804688 207.402344 140.003906 C 209.003906 138.402344 210.003906 136.203125 210.003906 133.800781 C 210.003906 131.402344 209.003906 129.199219 207.402344 127.601562 C 205.800781 126 203.5 125.199219 201.199219 125.199219 "/>
<path style=" stroke:none;fill-rule:nonzero;fill:rgb(44.313725%,76.078431%,100%);fill-opacity:1;" d="M 130.199219 122.800781 L 114.800781 122.800781 C 109.800781 122.800781 105.601562 127 105.601562 132 C 105.601562 137 109.800781 141.199219 114.800781 141.199219 L 130.199219 141.199219 C 135.199219 141.199219 139.402344 137 139.402344 132 C 139.398438 127 135.199219 122.800781 130.199219 122.800781 "/>
<path style=" stroke:none;fill-rule:nonzero;fill:rgb(44.313725%,76.078431%,100%);fill-opacity:1;" d="M 206 82.148438 C 204.449219 82.148438 202.898438 82.699219 201.800781 83.800781 C 200.597656 84.800781 200 86.398438 200 88 C 200 89.601562 200.601562 91 201.800781 92.199219 C 202.800781 93.398438 204.398438 94 206 94 C 207.601562 94 209.199219 93.398438 210.199219 92.199219 C 211.402344 91.199219 212 89.601562 212 88 C 212 86.398438 211.398438 85 210.199219 83.800781 C 209.101562 82.699219 207.550781 82.148438 206 82.148438 M 190 82.148438 C 188.449219 82.148438 186.898438 82.699219 185.800781 83.800781 C 184.601562 84.800781 184 86.398438 184 88 C 184 89.601562 184.601562 91.199219 185.800781 92.199219 C 186.800781 93.398438 188.398438 94 190 94 C 191.601562 94 193.199219 93.398438 194.199219 92.199219 C 195.398438 91.199219 196 89.601562 196 88 C 196 86.398438 195.398438 85 194.199219 83.800781 C 193.101562 82.699219 191.550781 82.148438 190 82.148438 M 206 102.148438 C 204.449219 102.148438 202.898438 102.699219 201.800781 103.800781 C 200.597656 104.800781 200 106.398438 200 108 C 200 109.601562 200.601562 111 201.800781 112.199219 C 202.800781 113.398438 204.398438 114 206 114 C 207.601562 114 209.199219 113.398438 210.199219 112.199219 C 211.402344 111.199219 212 109.601562 212 108 C 212 106.398438 211.398438 105 210.199219 103.800781 C 209.101562 102.699219 207.550781 102.148438 206 102.148438 "/>
<path style=" stroke:none;fill-rule:nonzero;fill:rgb(44.313725%,76.078431%,100%);fill-opacity:1;" d="M 166.898438 91.851562 C 164.5 91.851562 162.101562 92.699219 160.398438 94.398438 C 158.601562 96.199219 157.601562 98.601562 157.601562 101 C 157.601562 103.601562 158.601562 105.800781 160.398438 107.601562 C 162.199219 109.398438 164.601562 110.398438 167 110.398438 C 169.601562 110.398438 171.800781 109.398438 173.398438 107.601562 C 175.199219 105.800781 176.199219 103.398438 176.199219 101 C 176.199219 98.398438 175.199219 96.199219 173.398438 94.398438 C 171.699219 92.699219 169.300781 91.851562 166.898438 91.851562 M 142.398438 92 L 108.601562 92 C 103.601562 92 99.398438 96.199219 99.398438 101.199219 C 99.398438 106.199219 103.601562 110.398438 108.601562 110.398438 L 142.398438 110.398438 C 147.601562 110.398438 151.601562 106.199219 151.601562 101.199219 C 151.601562 96.199219 147.398438 92 142.398438 92 "/>
<path style=" stroke:none;fill-rule:nonzero;fill:rgb(44.313725%,76.078431%,100%);fill-opacity:1;" d="M 48 102.148438 C 46.449219 102.148438 44.898438 102.699219 43.800781 103.800781 C 42.601562 104.800781 42 106.398438 42 108 C 42 109.601562 42.601562 111.199219 43.800781 112.199219 C 44.800781 113.398438 46.398438 114 48 114 C 49.601562 114 51.199219 113.398438 52.199219 112.199219 C 53.398438 111.199219 54 109.601562 54 108 C 54 106.398438 53.398438 105 52.199219 103.800781 C 51.101562 102.699219 49.550781 102.148438 48 102.148438 M 64 102.148438 C 62.449219 102.148438 60.898438 102.699219 59.800781 103.800781 C 58.601562 104.800781 58 106.398438 58 108 C 58 109.601562 58.601562 111.199219 59.800781 112.199219 C 60.800781 113.398438 62.398438 114 64 114 C 65.601562 114 67.199219 113.398438 68.199219 112.199219 C 69.398438 111.199219 70 109.601562 70 108 C 70 106.398438 69.398438 105 68.199219 103.800781 C 67.101562 102.699219 65.550781 102.148438 64 102.148438 M 68 122 L 48 122 C 44.601562 122 42 124.601562 42 128 C 42 131.398438 44.601562 134 48 134 L 68 134 C 71.398438 134 74 131.398438 74 128 C 74 124.601562 71.398438 122 68 122 M 48 202.148438 C 46.449219 202.148438 44.898438 202.699219 43.800781 203.800781 C 42.601562 204.800781 42 206.398438 42 208 C 42 209.601562 42.601562 211 43.800781 212.199219 C 44.800781 213.402344 46.398438 214 48 214 C 49.601562 214 51.199219 213.398438 52.199219 212.199219 C 53.398438 211.199219 54 209.601562 54 208 C 54 206.398438 53.398438 205 52.199219 203.800781 C 51.101562 202.699219 49.550781 202.148438 48 202.148438 M 94 202.148438 C 92.449219 202.148438 90.898438 202.699219 89.800781 203.800781 C 88.601562 204.800781 88 206.398438 88 208 C 88 209.601562 88.601562 211 89.800781 212.199219 C 90.800781 213.402344 92.398438 214 94 214 C 95.601562 214 97.199219 213.398438 98.199219 212.199219 C 99.398438 211.199219 100 209.601562 100 208 C 100 206.398438 99.398438 205 98.199219 203.800781 C 97.101562 202.699219 95.550781 202.148438 94 202.148438 M 110 202.148438 C 108.449219 202.148438 106.898438 202.699219 105.800781 203.800781 C 104.601562 204.800781 104 206.398438 104 208 C 104 209.601562 104.601562 211 105.800781 212.199219 C 106.800781 213.402344 108.398438 214 110 214 C 111.601562 214 113.199219 213.398438 114.199219 212.199219 C 115.398438 211.199219 116 209.601562 116 208 C 116 206.398438 115.398438 205 114.199219 203.800781 C 113.101562 202.699219 111.550781 202.148438 110 202.148438 M 78 202 L 66 202 C 62.601562 202 60 204.601562 60 208 C 60 211.398438 62.601562 214 66 214 L 78 214 C 81.398438 214 84 211.398438 84 208 C 84 204.601562 81.398438 202 78 202 M 134 202 L 126 202 C 122.601562 202 120 204.601562 120 208 C 120 211.398438 122.601562 214 126 214 L 134 214 C 137.398438 214 140 211.398438 140 208 C 140 204.601562 137.398438 202 134 202 M 172 202 L 150 202 C 146.601562 202 144 204.601562 144 208 C 144 211.398438 146.601562 214 150 214 L 172 214 C 175.398438 214 178 211.398438 178 208 C 178 204.601562 175.398438 202 172 202 M 206 202.148438 C 204.449219 202.148438 202.898438 202.699219 201.800781 203.800781 C 200.597656 204.800781 200 206.398438 200 208 C 200 209.601562 200.601562 211 201.800781 212.199219 C 202.800781 213.402344 204.398438 214 206 214 C 207.601562 214 209.199219 213.398438 210.199219 212.199219 C 211.402344 211.199219 212 209.601562 212 208 C 212 206.398438 211.398438 205 210.199219 203.800781 C 209.101562 202.699219 207.550781 202.148438 206 202.148438 M 190 202.148438 C 188.449219 202.148438 186.898438 202.699219 185.800781 203.800781 C 184.597656 204.800781 184 206.398438 184 208 C 184 209.601562 184.601562 211 185.800781 212.199219 C 186.800781 213.402344 188.398438 214 190 214 C 191.601562 214 193.199219 213.398438 194.199219 212.199219 C 195.402344 211.199219 196 209.601562 196 208 C 196 206.398438 195.398438 205 194.199219 203.800781 C 193.101562 202.699219 191.550781 202.148438 190 202.148438 M 208 182.148438 C 206.449219 182.148438 204.898438 182.699219 203.800781 183.800781 C 202.597656 184.800781 202 186.398438 202 188 C 202 189.601562 202.601562 191.199219 203.800781 192.199219 C 204.800781 193.402344 206.398438 194 208 194 C 209.601562 194 211.199219 193.398438 212.199219 192.199219 C 213.402344 191.199219 214 189.601562 214 188 C 214 186.398438 213.398438 185 212.199219 183.800781 C 211.101562 182.699219 209.550781 182.148438 208 182.148438 M 162 182.148438 C 160.449219 182.148438 158.898438 182.699219 157.800781 183.800781 C 156.601562 184.800781 156 186.398438 156 188 C 156 189.601562 156.601562 191.199219 157.800781 192.199219 C 158.800781 193.398438 160.398438 194 162 194 C 163.601562 194 165.199219 193.398438 166.199219 192.199219 C 167.398438 191.199219 168 189.601562 168 188 C 168 186.398438 167.398438 185 166.199219 183.800781 C 165.101562 182.699219 163.550781 182.148438 162 182.148438 M 188 182 L 178 182 C 174.601562 182 172 184.601562 172 188 C 172 191.398438 174.601562 194 178 194 L 188 194 C 191.398438 194 194 191.398438 194 188 C 194 184.601562 191.398438 182 188 182 "/>
<path style=" stroke:none;fill-rule:nonzero;fill:rgb(44.313725%,76.078431%,100%);fill-opacity:1;" d="M 145.5 153.449219 C 143.101562 153.449219 140.699219 154.300781 139 156 C 137.199219 157.800781 136.199219 160.199219 136.199219 162.601562 C 136.199219 165.199219 137.199219 167.398438 139 169.199219 C 140.800781 171 143.199219 172 145.601562 172 C 148 172 150.398438 171 152 169.199219 C 153.800781 167.402344 154.800781 165 154.800781 162.601562 C 154.800781 160 153.800781 157.800781 152 156 C 150.300781 154.300781 147.898438 153.449219 145.5 153.449219 M 185.601562 153.601562 L 170.199219 153.601562 C 165.199219 153.601562 161 157.800781 161 162.800781 C 161 167.800781 165.199219 172.003906 170.199219 172.003906 L 185.601562 172.003906 C 186.214844 172.003906 186.8125 171.9375 187.398438 171.816406 C 186.464844 170.816406 186 169.40625 186 168 C 186 166.398438 186.601562 164.800781 187.800781 163.800781 C 188.898438 162.699219 190.449219 162.148438 192 162.148438 C 192.96875 162.148438 193.941406 162.367188 194.800781 162.796875 C 194.796875 157.796875 190.597656 153.601562 185.601562 153.601562 "/>
<path style=" stroke:none;fill-rule:nonzero;fill:rgb(44.313725%,76.078431%,100%);fill-opacity:1;" d="M 88 142.148438 C 86.449219 142.148438 84.898438 142.699219 83.800781 143.800781 C 82.601562 144.800781 82 146.398438 82 148 C 82 149.601562 82.601562 151.199219 83.800781 152.199219 C 84.800781 153.398438 86.398438 154 88 154 C 89.601562 154 91.199219 153.398438 92.199219 152.199219 C 93.398438 151.199219 94 149.601562 94 148 C 94 146.398438 93.398438 145 92.199219 143.800781 C 91.101562 142.699219 89.550781 142.148438 88 142.148438 M 72 142.148438 C 70.449219 142.148438 68.898438 142.699219 67.800781 143.800781 C 66.601562 144.800781 66 146.398438 66 148 C 66 149.601562 66.601562 151.199219 67.800781 152.199219 C 68.800781 153.398438 70.398438 154 72 154 C 73.601562 154 75.199219 153.398438 76.199219 152.199219 C 77.398438 151.199219 78 149.601562 78 148 C 78 146.398438 77.398438 145 76.199219 143.800781 C 75.101562 142.699219 73.550781 142.148438 72 142.148438 M 56 142 L 48 142 C 44.601562 142 42 144.601562 42 148 C 42 151.398438 44.601562 154 48 154 L 56 154 C 59.398438 154 62 151.398438 62 148 C 62 144.601562 59.398438 142 56 142 "/>
<path style=" stroke:none;fill-rule:nonzero;fill:rgb(44.313725%,76.078431%,100%);fill-opacity:1;" d="M 121 153.601562 L 105.601562 153.601562 C 100.8125 153.601562 96.761719 157.449219 96.425781 162.164062 C 97.828125 162.253906 99.199219 162.800781 100.199219 163.800781 C 101.398438 165 102 166.398438 102 168 C 102 169.015625 101.761719 170.027344 101.277344 170.886719 C 102.574219 171.597656 104.046875 172 105.601562 172 L 121 172 C 126 172 130.199219 167.800781 130.199219 162.800781 C 130.199219 157.800781 126 153.601562 121 153.601562 "/>
<path style=" stroke:none;fill-rule:nonzero;fill:rgb(44.313725%,76.078431%,100%);fill-opacity:1;" d="M 146 182 L 124 182 C 120.601562 182 118 184.601562 118 188 C 118 191.398438 120.601562 194 124 194 L 146 194 C 149.398438 194 152 191.398438 152 188 C 152 184.601562 149.398438 182 146 182 M 90 182 L 84 182 C 80.601562 182 78 184.601562 78 188 C 78 191.398438 80.601562 194 84 194 L 90 194 C 93.398438 194 96 191.398438 96 188 C 96 184.601562 93.398438 182 90 182 M 50 182.148438 C 48.449219 182.148438 46.898438 182.699219 45.800781 183.800781 C 44.601562 184.800781 44 186.398438 44 188 C 44 189.601562 44.601562 191.199219 45.800781 192.199219 C 46.800781 193.398438 48.398438 194 50 194 C 51.601562 194 53.199219 193.398438 54.199219 192.199219 C 55.398438 191.199219 56 189.601562 56 188 C 56 186.398438 55.398438 185 54.199219 183.800781 C 53.101562 182.699219 51.550781 182.148438 50 182.148438 M 66 182.148438 C 64.449219 182.148438 62.898438 182.699219 61.800781 183.800781 C 60.601562 184.800781 60 186.398438 60 188 C 60 189.601562 60.601562 191.199219 61.800781 192.199219 C 62.800781 193.398438 64.398438 194 66 194 C 67.601562 194 69.199219 193.398438 70.199219 192.199219 C 71.398438 191.199219 72 189.601562 72 188 C 72 186.398438 71.398438 185 70.199219 183.800781 C 69.101562 182.699219 67.550781 182.148438 66 182.148438 M 106 182.148438 C 104.449219 182.148438 102.898438 182.699219 101.800781 183.800781 C 100.601562 184.800781 100 186.398438 100 188 C 100 189.601562 100.601562 191.199219 101.800781 192.199219 C 102.800781 193.398438 104.398438 194 106 194 C 107.601562 194 109.199219 193.398438 110.199219 192.199219 C 111.398438 191.199219 112 189.601562 112 188 C 112 186.398438 111.398438 185 110.199219 183.800781 C 109.101562 182.699219 107.550781 182.148438 106 182.148438 M 50 162.148438 C 48.449219 162.148438 46.898438 162.699219 45.800781 163.800781 C 44.601562 164.800781 44 166.398438 44 168 C 44 169.601562 44.601562 171.199219 45.800781 172.199219 C 46.800781 173.398438 48.398438 174 50 174 C 51.601562 174 53.199219 173.398438 54.199219 172.199219 C 55.398438 171.199219 56 169.601562 56 168 C 56 166.398438 55.398438 165 54.199219 163.800781 C 53.101562 162.699219 51.550781 162.148438 50 162.148438 M 96 162.148438 C 94.449219 162.148438 92.898438 162.699219 91.800781 163.800781 C 90.601562 164.800781 90 166.398438 90 168 C 90 169.601562 90.601562 171.199219 91.800781 172.199219 C 92.800781 173.398438 94.398438 174 96 174 C 97.601562 174 99.199219 173.398438 100.199219 172.199219 C 100.640625 171.832031 100.996094 171.386719 101.277344 170.890625 C 101.761719 170.027344 102 169.015625 102 168 C 102 166.398438 101.398438 165 100.199219 163.800781 C 99.199219 162.800781 97.828125 162.253906 96.425781 162.160156 C 96.28125 162.152344 96.140625 162.148438 96 162.148438 M 80 162 L 70 162 C 66.601562 162 64 164.601562 64 168 C 64 171.398438 66.601562 174 70 174 L 80 174 C 83.398438 174 86 171.398438 86 168 C 86 164.601562 83.398438 162 80 162 M 208 162.148438 C 206.449219 162.148438 204.898438 162.699219 203.800781 163.800781 C 202.597656 164.800781 202 166.398438 202 168 C 202 169.601562 202.601562 171 203.800781 172.199219 C 204.800781 173.402344 206.398438 174 208 174 C 209.601562 174 211.199219 173.398438 212.199219 172.199219 C 213.402344 171.199219 214 169.601562 214 168 C 214 166.398438 213.398438 165 212.199219 163.800781 C 211.101562 162.699219 209.550781 162.148438 208 162.148438 M 192 162.148438 C 190.449219 162.148438 188.898438 162.699219 187.800781 163.800781 C 186.601562 164.800781 186 166.398438 186 168 C 186 169.40625 186.464844 170.816406 187.394531 171.816406 C 187.523438 171.953125 187.65625 172.078125 187.800781 172.199219 C 188.800781 173.398438 190.398438 174 192 174 C 193.601562 174 195.199219 173.398438 196.199219 172.199219 C 197.398438 171.199219 198 169.601562 198 168 C 198 166.398438 197.398438 165 196.199219 163.800781 C 195.789062 163.386719 195.3125 163.054688 194.800781 162.796875 C 193.941406 162.367188 192.96875 162.148438 192 162.148438 "/>
<path style=" stroke:none;fill-rule:nonzero;fill:rgb(27.058824%,29.411765%,32.941176%);fill-opacity:1;" d="M 238 244 C 234.601562 244 232 241.398438 232 238 L 232 28 C 232 25.800781 230.199219 24 228 24 L 28 24 C 25.800781 24 24 25.800781 24 28 L 24 238 C 24 241.398438 21.398438 244 18 244 C 14.601562 244 12 241.398438 12 238 L 12 28 C 12 19.199219 19.199219 12 28 12 L 228 12 C 236.800781 12 244 19.199219 244 28 L 244 238 C 244 241.398438 241.398438 244 238 244 Z M 238 244 "/>
<path style=" stroke:none;fill-rule:nonzero;fill:rgb(100%,100%,100%);fill-opacity:1;" d="M 218 32 L 138 32 C 134.601562 32 132 34.601562 132 38 C 132 41.398438 134.601562 44 138 44 L 218 44 C 221.398438 44 224 41.398438 224 38 C 224 34.601562 221.398438 32 218 32 Z M 73.800781 33.800781 C 72.601562 34.800781 72 36.398438 72 38 C 72 39.601562 72.601562 41.199219 73.800781 42.199219 C 75 43.398438 76.398438 44 78 44 C 79.601562 44 81.199219 43.398438 82.199219 42.199219 C 83.398438 41 84 39.601562 84 38 C 84 36.398438 83.398438 34.800781 82.199219 33.800781 C 80 31.601562 76 31.601562 73.800781 33.800781 Z M 53.800781 33.800781 C 52.601562 34.800781 52 36.398438 52 38 C 52 39.601562 52.601562 41.199219 53.800781 42.199219 C 55 43.398438 56.398438 44 58 44 C 59.601562 44 61.199219 43.398438 62.199219 42.199219 C 63.398438 41 64 39.601562 64 38 C 64 36.398438 63.398438 34.800781 62.199219 33.800781 C 60 31.601562 56 31.601562 53.800781 33.800781 Z M 33.800781 33.800781 C 32.601562 34.800781 32 36.398438 32 38 C 32 39.601562 32.601562 41.199219 33.800781 42.199219 C 35 43.398438 36.398438 44 38 44 C 39.601562 44 41.199219 43.398438 42.199219 42.199219 C 43.398438 41 44 39.601562 44 38 C 44 36.398438 43.398438 34.800781 42.199219 33.800781 C 40 31.601562 36 31.601562 33.800781 33.800781 Z M 72.601562 216.601562 L 60.601562 204.800781 L 87.800781 178 L 99.800781 189.800781 L 72.601562 216.601562 C 72.800781 216.601562 72.800781 216.601562 72.601562 216.601562 Z M 72.601562 216.601562 "/>
<path style=" stroke:none;fill-rule:nonzero;fill:rgb(27.058824%,29.411765%,32.941176%);fill-opacity:1;" d="M 72.800781 222.601562 C 71.199219 222.601562 69.800781 222 68.601562 221 L 56.601562 209 C 55.398438 207.800781 54.800781 206.398438 54.800781 204.800781 C 54.800781 203.199219 55.398438 201.597656 56.601562 200.597656 L 83.800781 173.800781 C 86 171.597656 90 171.597656 92.199219 173.800781 L 104.199219 185.800781 C 105.398438 187 106 188.398438 106 190 C 106 191.601562 105.398438 193.199219 104.199219 194.199219 L 77 221 C 75.800781 222 74.398438 222.601562 72.800781 222.601562 Z M 69.199219 204.800781 L 72.800781 208.199219 L 91.398438 189.800781 L 87.800781 186.398438 Z M 69.199219 204.800781 "/>
<path style=" stroke:none;fill-rule:nonzero;fill:rgb(100%,100%,100%);fill-opacity:1;" d="M 200.601562 134.398438 C 200.601562 103.398438 175.199219 78.199219 143.800781 78.199219 C 112.402344 78.199219 87.003906 103.398438 87.003906 134.398438 C 87.003906 165.398438 112.402344 190.601562 143.800781 190.601562 C 175.199219 190.601562 200.601562 165.398438 200.601562 134.398438 Z M 101.199219 134.398438 C 101.199219 111.199219 120.199219 92.199219 143.800781 92.199219 C 167.398438 92.199219 186.398438 111 186.398438 134.398438 C 186.398438 157.800781 167.398438 176.601562 143.800781 176.601562 C 120.199219 176.601562 101.199219 157.601562 101.199219 134.398438 Z M 101.199219 134.398438 "/>
<path style=" stroke:none;fill-rule:nonzero;fill:rgb(27.058824%,29.411765%,32.941176%);fill-opacity:1;" d="M 143.800781 196.601562 C 109.199219 196.601562 81 168.601562 81 134.398438 C 81 100.199219 109.199219 72.199219 143.800781 72.199219 C 178.398438 72.199219 206.597656 100.199219 206.597656 134.398438 C 206.601562 168.601562 178.398438 196.601562 143.800781 196.601562 Z M 143.800781 84.199219 C 115.800781 84.199219 93 106.800781 93 134.398438 C 93 162 115.800781 184.601562 143.800781 184.601562 C 171.800781 184.601562 194.601562 162 194.601562 134.398438 C 194.601562 106.800781 171.800781 84.199219 143.800781 84.199219 Z M 143.800781 84.199219 "/>
<path style=" stroke:none;fill-rule:nonzero;fill:rgb(27.058824%,29.411765%,32.941176%);fill-opacity:1;" d="M 90 183.800781 C 90 182.800781 90.398438 181.800781 91.199219 181 L 100.800781 171.398438 C 102.398438 169.800781 104.800781 169.800781 106.398438 171.398438 C 108 173 108 175.398438 106.398438 177 L 96.800781 186.601562 C 95.199219 188.199219 92.800781 188.199219 91.199219 186.601562 C 90.398438 185.800781 90 184.800781 90 183.800781 Z M 90 183.800781 "/>
</g>
</svg>
