<svg xmlns="http://www.w3.org/2000/svg" viewBox="0 0 128 128" width="256px" height="256px"><path fill="#fff" d="M114,81V14c0-5.5-4.5-10-10-10H24c-5.5,0-10,4.5-10,10v67H4v3c0,5.5,4.5,10,10,10h100c5.5,0,10-4.5,10-10v-3H114z"/><path fill="#444b54" d="M74,84H54c-1.7,0-3-1.3-3-3s1.3-3,3-3h20c1.7,0,3,1.3,3,3S75.7,84,74,84z"/><path fill="#444b54" d="M114 97H14C6.8 97 1 91.2 1 84v-3c0-1.7 1.3-3 3-3h35c1.7 0 3 1.3 3 3s-1.3 3-3 3H7c0 3.9 3.1 7 7 7h100c3.9 0 7-3.1 7-7H89c-1.7 0-3-1.3-3-3s1.3-3 3-3h35c1.7 0 3 1.3 3 3v3C127 91.2 121.2 97 114 97zM114 73c-1.7 0-3-1.3-3-3V14c0-3.9-3.1-7-7-7H24c-3.9 0-7 3.1-7 7v56c0 1.7-1.3 3-3 3s-3-1.3-3-3V14c0-7.2 5.8-13 13-13h80c7.2 0 13 5.8 13 13v56C117 71.7 115.7 73 114 73z"/><g><path fill="#71c2ff" d="M114 121H67v-12c0-1.7-1.3-3-3-3s-3 1.3-3 3v12H29c-1.7 0-3 1.3-3 3s1.3 3 3 3h85c1.7 0 3-1.3 3-3S115.7 121 114 121zM14 127c-.2 0-.4 0-.6-.1-.2 0-.4-.1-.6-.2-.2-.1-.3-.2-.5-.3-.2-.1-.3-.2-.4-.4-.6-.6-.9-1.3-.9-2.1 0-.2 0-.4.1-.6 0-.2.1-.4.2-.6.1-.2.2-.3.3-.5.1-.2.2-.3.4-.5s.3-.3.4-.4c.2-.1.3-.2.5-.3.2-.1.4-.1.6-.2 1-.2 2 .1 2.7.8.1.1.3.3.4.5.1.2.2.3.3.5.1.2.1.4.2.6 0 .2.1.4.1.6 0 .8-.3 1.6-.9 2.1C15.6 126.7 14.8 127 14 127z"/></g></svg>