<svg xmlns="http://www.w3.org/2000/svg" viewBox="0 0 128 128" width="256px" height="256px"><path fill="#fff" d="M64 39A25 25 0 1 0 64 89 25 25 0 1 0 64 39zM64 3A10 10 0 1 0 64 23 10 10 0 1 0 64 3zM64 105A10 10 0 1 0 64 125 10 10 0 1 0 64 105zM109 80A10 10 0 1 0 109 100 10 10 0 1 0 109 80zM109 28A10 10 0 1 0 109 48 10 10 0 1 0 109 28zM19 28A10 10 0 1 0 19 48 10 10 0 1 0 19 28zM19 80A10 10 0 1 0 19 100 10 10 0 1 0 19 80z"/><path fill="#71c2ff" d="M19 70c-1.7 0-3-1.3-3-3v-6c0-1.7 1.3-3 3-3s3 1.3 3 3v6C22 68.7 20.6 70 19 70zM44.1 107.5c-.5 0-1-.1-1.5-.4l-5.2-3c-1.4-.8-1.9-2.7-1.1-4.1.8-1.4 2.7-1.9 4.1-1.1l5.2 3c1.4.8 1.9 2.7 1.1 4.1C46.1 107 45.1 107.5 44.1 107.5zM83.9 107.5c-1 0-2-.5-2.6-1.5-.8-1.4-.3-3.3 1.1-4.1l5.2-3c1.4-.8 3.3-.3 4.1 1.1.8 1.4.3 3.3-1.1 4.1l-5.2 3C84.9 107.4 84.4 107.5 83.9 107.5zM109 70c-1.7 0-3-1.3-3-3v-6c0-1.7 1.3-3 3-3s3 1.3 3 3v6C112 68.7 110.7 70 109 70zM89.1 29.5c-.5 0-1-.1-1.5-.4l-5.2-3c-1.4-.8-1.9-2.7-1.1-4.1.8-1.4 2.7-1.9 4.1-1.1l5.2 3c1.4.8 1.9 2.7 1.1 4.1C91.2 29 90.1 29.5 89.1 29.5zM38.9 29.5c-1 0-2-.5-2.6-1.5-.8-1.4-.3-3.3 1.1-4.1l5.2-3c1.4-.8 3.3-.3 4.1 1.1.8 1.4.3 3.3-1.1 4.1l-5.2 3C39.9 29.4 39.4 29.5 38.9 29.5zM64 26c-7.2 0-13-5.8-13-13S56.8 0 64 0s13 5.8 13 13S71.2 26 64 26zM64 6c-3.9 0-7 3.1-7 7s3.1 7 7 7 7-3.1 7-7S67.9 6 64 6zM64 128c-7.2 0-13-5.8-13-13s5.8-13 13-13 13 5.8 13 13S71.2 128 64 128zM64 108c-3.9 0-7 3.1-7 7s3.1 7 7 7 7-3.1 7-7S67.9 108 64 108z"/><g><path fill="#71c2ff" d="M109,103c-7.2,0-13-5.8-13-13s5.8-13,13-13s13,5.8,13,13S116.2,103,109,103z M109,83c-3.9,0-7,3.1-7,7s3.1,7,7,7s7-3.1,7-7S112.9,83,109,83z"/></g><g><path fill="#71c2ff" d="M109,51c-7.2,0-13-5.8-13-13s5.8-13,13-13s13,5.8,13,13S116.2,51,109,51z M109,31c-3.9,0-7,3.1-7,7s3.1,7,7,7s7-3.1,7-7S112.9,31,109,31z"/></g><g><path fill="#71c2ff" d="M19,51c-7.2,0-13-5.8-13-13s5.8-13,13-13s13,5.8,13,13S26.2,51,19,51z M19,31c-3.9,0-7,3.1-7,7s3.1,7,7,7s7-3.1,7-7S22.9,31,19,31z"/></g><g><path fill="#71c2ff" d="M19,103c-7.2,0-13-5.8-13-13s5.8-13,13-13s13,5.8,13,13S26.2,103,19,103z M19,83c-3.9,0-7,3.1-7,7s3.1,7,7,7s7-3.1,7-7S22.9,83,19,83z"/></g><g><path fill="#444b54" d="M64,92c-15.4,0-28-12.6-28-28s12.6-28,28-28s28,12.6,28,28S79.4,92,64,92z M64,42c-12.1,0-22,9.9-22,22s9.9,22,22,22s22-9.9,22-22S76.1,42,64,42z"/></g></svg>