<svg xmlns="http://www.w3.org/2000/svg" viewBox="0 0 128 128" width="512px" height="512px"><path fill="#71c2ff" d="M81.3,96.1c-0.6,0-1.1-0.2-1.6-0.5L64,85.6l-14.9,9.9c-1.4,0.9-3.2,0.5-4.2-0.8c-0.9-1.4-0.5-3.2,0.8-4.2l16.5-11c1-0.7,2.3-0.7,3.3,0L83,90.6c1.4,0.9,1.8,2.7,0.9,4.1C83.3,95.6,82.3,96.1,81.3,96.1z"/><path fill="#fff" d="M81.4 52.1C78 46.1 71.5 42 64 42h0c-7.5 0-14 4.1-17.4 10.1L47 55h34L81.4 52.1zM64 12A10 10 0 1 0 64 32 10 10 0 1 0 64 12z"/><path fill="#444b54" d="M64 35c-7.2 0-13-5.8-13-13S56.8 9 64 9s13 5.8 13 13S71.2 35 64 35zM64 15c-3.9 0-7 3.1-7 7s3.1 7 7 7 7-3.1 7-7S67.9 15 64 15zM46.6 55.1c-.5 0-1-.1-1.5-.4-1.4-.8-1.9-2.6-1.1-4.1C48.1 43.5 55.7 39 64 39c8.3 0 15.9 4.5 20 11.7.8 1.4.3 3.3-1.1 4.1-1.4.8-3.3.3-4.1-1.1-3-5.3-8.7-8.6-14.8-8.6-6.1 0-11.8 3.3-14.8 8.6C48.7 54.6 47.6 55.1 46.6 55.1z"/><g><path fill="#fff" d="M124.4 114.1c-3.4-6.1-9.9-10.1-17.4-10.1h0c-7.5 0-14 4.1-17.4 10.1L90 117h34L124.4 114.1zM107 74A10 10 0 1 0 107 94 10 10 0 1 0 107 74z"/><path fill="#444b54" d="M107 97c-7.2 0-13-5.8-13-13s5.8-13 13-13 13 5.8 13 13S114.2 97 107 97zM107 77c-3.9 0-7 3.1-7 7s3.1 7 7 7 7-3.1 7-7S110.9 77 107 77zM89.6 117.1c-.5 0-1-.1-1.5-.4-1.4-.8-1.9-2.6-1.1-4.1 4.1-7.2 11.8-11.7 20-11.7 8.3 0 15.9 4.5 20 11.7.8 1.4.3 3.3-1.1 4.1-1.4.8-3.3.3-4.1-1.1-3-5.3-8.7-8.6-14.8-8.6-6.1 0-11.8 3.3-14.8 8.6C91.7 116.6 90.6 117.1 89.6 117.1z"/></g><g><path fill="#fff" d="M38.4 114.1C35 108.1 28.5 104 21 104h0c-7.5 0-14 4.1-17.4 10.1L4 117h34L38.4 114.1zM21 74A10 10 0 1 0 21 94 10 10 0 1 0 21 74z"/><path fill="#444b54" d="M21 97c-7.2 0-13-5.8-13-13s5.8-13 13-13 13 5.8 13 13S28.2 97 21 97zM21 77c-3.9 0-7 3.1-7 7s3.1 7 7 7 7-3.1 7-7S24.9 77 21 77zM3.6 117.1c-.5 0-1-.1-1.5-.4-1.4-.8-1.9-2.6-1.1-4.1 4.1-7.2 11.8-11.7 20-11.7 8.3 0 15.9 4.5 20 11.7.8 1.4.3 3.3-1.1 4.1-1.4.8-3.3.3-4.1-1.1-3-5.3-8.7-8.6-14.8-8.6-6.1 0-11.8 3.3-14.8 8.6C5.7 116.6 4.6 117.1 3.6 117.1z"/></g><g><path fill="#71c2ff" d="M64,85c-1.7,0-3-1.3-3-3V65c0-1.7,1.3-3,3-3s3,1.3,3,3v17C67,83.7,65.7,85,64,85z"/></g></svg>