<svg xmlns="http://www.w3.org/2000/svg" viewBox="0 0 128 128" width="256px" height="256px"><path fill="#fff" d="M112 34L64 17 16 34 16 94 64 111 112 94z"/><path fill="#fff" d="M112 34L64 17 16 34 16 94 64 111 112 94zM112 34L64 17"/><path fill="#444b54" d="M64,114c-0.3,0-0.7-0.1-1-0.2l-48-17c-1.2-0.4-2-1.6-2-2.8V34c0-1.3,0.8-2.4,2-2.8l48-17c1.6-0.6,3.3,0.3,3.8,1.8c0.6,1.6-0.3,3.3-1.8,3.8L19,36.1v55.8l46,16.3c1.6,0.6,2.4,2.3,1.8,3.8C66.4,113.2,65.2,114,64,114z"/><path fill="#fff" d="M112 34L64 17M112 34L64 17"/><path fill="#71c2ff" d="M34,52.9V42.1c0-1.3,0.8-2.4,2-2.8L82,23l12,4L47,43.3c-1.2,0.4-2,1.6-2,2.8v10c0,1.4-1.4,2.4-2.7,1.9L36,55.7C34.8,55.3,34,54.2,34,52.9z"/><path fill="#444b54" d="M115,33.8c0-0.1,0-0.2,0-0.4c0,0,0,0,0-0.1c0-0.1-0.1-0.3-0.1-0.4c-0.3-0.8-1-1.5-1.7-1.8c0,0-0.1,0-0.1-0.1l-48-17c0,0,0,0-0.1,0c-0.6-0.2-1.3-0.2-1.9,0l-48,17c-1.2,0.4-2,1.6-2,2.8v60c0,1.3,0.8,2.4,2,2.8l48,17c0,0,0,0,0,0c0.3,0.1,0.7,0.2,1,0.2c0.3,0,0.7-0.1,1-0.2l48-17c1.2-0.4,2-1.6,2-2.8V34C115,33.9,115,33.9,115,33.8z M19,36.1l45-15.9L103,34L63,48.2c0,0,0,0-0.1,0C61.8,48.6,61,49.7,61,51v55.8L19,91.9V36.1z M67,106.8V53.1l42-14.9v53.6L67,106.8z"/></svg>