<svg xmlns="http://www.w3.org/2000/svg" viewBox="0 0 128 128" width="256px" height="256px"><path fill="#fff" d="M29 54A10 10 0 1 0 29 74 10 10 0 1 0 29 54zM29 89A10 10 0 1 0 29 109 10 10 0 1 0 29 89zM29 19A10 10 0 1 0 29 39 10 10 0 1 0 29 19z"/><path fill="#71c2ff" d="M29,77c-7.2,0-13-5.8-13-13s5.8-13,13-13s13,5.8,13,13S36.2,77,29,77z M29,57c-3.9,0-7,3.1-7,7s3.1,7,7,7s7-3.1,7-7S32.9,57,29,57z"/><path fill="#444b54" d="M29,112c-7.2,0-13-5.8-13-13s5.8-13,13-13s13,5.8,13,13S36.2,112,29,112z M29,92c-3.9,0-7,3.1-7,7s3.1,7,7,7s7-3.1,7-7S32.9,92,29,92z"/><path fill="#71c2ff" d="M29 42c-7.2 0-13-5.8-13-13s5.8-13 13-13 13 5.8 13 13S36.2 42 29 42zM29 22c-3.9 0-7 3.1-7 7s3.1 7 7 7 7-3.1 7-7S32.9 22 29 22zM108 32H54c-1.7 0-3-1.3-3-3s1.3-3 3-3h54c1.7 0 3 1.3 3 3S109.7 32 108 32zM108 67H54c-1.7 0-3-1.3-3-3s1.3-3 3-3h54c1.7 0 3 1.3 3 3S109.7 67 108 67z"/><path fill="#444b54" d="M108,102H54c-1.7,0-3-1.3-3-3s1.3-3,3-3h54c1.7,0,3,1.3,3,3S109.7,102,108,102z"/></svg>