<svg xmlns="http://www.w3.org/2000/svg" viewBox="0 0 128 128" width="256px" height="256px"><path fill="#fff" d="M86,9H32c-5.5,0-10,4.5-10,10v90c0,5.5,4.5,10,10,10h64c5.5,0,10-4.5,10-10V29C106,18,97,9,86,9z"/><path fill="#71c2ff" d="M43.5 46c-5 0-9-4-9-9v-5c0-5 4-9 9-9s9 4 9 9v5C52.5 42 48.5 46 43.5 46zM43.5 29c-1.7 0-3 1.3-3 3v5c0 1.7 1.3 3 3 3s3-1.3 3-3v-5C46.5 30.3 45.2 29 43.5 29zM84.5 46c-5 0-9-4-9-9v-5c0-1.7 1.3-3 3-3s3 1.3 3 3v5c0 1.7 1.3 3 3 3s3-1.3 3-3c0-1.7 1.3-3 3-3s3 1.3 3 3C93.5 42 89.5 46 84.5 46zM64.5 76c-5 0-9-4-9-9v-5c0-5 4-9 9-9s9 4 9 9v5C73.5 72 69.5 76 64.5 76zM64.5 59c-1.7 0-3 1.3-3 3v5c0 1.7 1.3 3 3 3s3-1.3 3-3v-5C67.5 60.3 66.2 59 64.5 59zM84.5 76c-5 0-9-4-9-9v-5c0-5 4-9 9-9s9 4 9 9v5C93.5 72 89.5 76 84.5 76zM84.5 59c-1.7 0-3 1.3-3 3v5c0 1.7 1.3 3 3 3s3-1.3 3-3v-5C87.5 60.3 86.2 59 84.5 59zM64.5 46c-1.7 0-3-1.3-3-3V29h-3c-1.7 0-3-1.3-3-3s1.3-3 3-3h6c1.7 0 3 1.3 3 3v17C67.5 44.7 66.2 46 64.5 46z"/><path fill="#71c2ff" d="M70.5 46h-12c-1.7 0-3-1.3-3-3s1.3-3 3-3h12c1.7 0 3 1.3 3 3S72.2 46 70.5 46zM43.5 106c-5 0-9-4-9-9v-5c0-5 4-9 9-9s9 4 9 9v5C52.5 102 48.5 106 43.5 106zM43.5 89c-1.7 0-3 1.3-3 3v5c0 1.7 1.3 3 3 3s3-1.3 3-3v-5C46.5 90.3 45.2 89 43.5 89zM84.5 106c-5 0-9-4-9-9v-5c0-5 4-9 9-9s9 4 9 9v5C93.5 102 89.5 106 84.5 106zM84.5 89c-1.7 0-3 1.3-3 3v5c0 1.7 1.3 3 3 3s3-1.3 3-3v-5C87.5 90.3 86.2 89 84.5 89zM64.5 106c-1.7 0-3-1.3-3-3V89h-3c-1.7 0-3-1.3-3-3s1.3-3 3-3h6c1.7 0 3 1.3 3 3v17C67.5 104.7 66.2 106 64.5 106z"/><path fill="#71c2ff" d="M70.5 106h-12c-1.7 0-3-1.3-3-3s1.3-3 3-3h12c1.7 0 3 1.3 3 3S72.2 106 70.5 106zM44.5 76c-1.7 0-3-1.3-3-3V59h-3c-1.7 0-3-1.3-3-3s1.3-3 3-3h6c1.7 0 3 1.3 3 3v17C47.5 74.7 46.2 76 44.5 76z"/><path fill="#71c2ff" d="M50.5,76h-12c-1.7,0-3-1.3-3-3s1.3-3,3-3h12c1.7,0,3,1.3,3,3S52.2,76,50.5,76z"/><g><path fill="#444b54" d="M32,12h51l0,7c0,7.2,5.8,13,13,13h9.6c0.1,0,0.2,0,0.4,0c0,0,0,0,0,0c1.2,0,2.3-0.8,2.8-1.8c0.2-0.4,0.3-0.8,0.3-1.2c0-0.1,0-0.2,0-0.4c-0.1-6-2.5-11.6-6.7-15.9C97.9,8.4,92.2,6,86,6c0,0,0,0,0,0H32c-7.2,0-13,5.8-13,13v90c0,7.3,5.9,13,11,13h63.8c8.7,0,15-5.5,15-13l0.1-67c0-1.7-1.3-3-3-3c0,0,0,0,0,0c-1.7,0-3,1.3-3,3l-0.1,67c0,4.2-3.6,7-9,7H30c-1.7,0-5-3-5-7V19C25,15.1,28.1,12,32,12z M102.7,26H96c-3.9,0-7-3.1-7-7l0-6.7c3.4,0.6,6.5,2.2,9,4.7C100.5,19.5,102.1,22.6,102.7,26z"/></g></svg>