<svg xmlns="http://www.w3.org/2000/svg" viewBox="0 0 128 128" width="256px" height="256px"><path fill="#fff" d="M64.2,21.4c4.8,0.3,9.4,2.4,12.8,5.8l44.2,44.2c3.9,3.9,3.9,10.2,0,14.1l-35.4,35.4c-3.9,3.9-10.2,3.9-14.1,0 L27.5,76.7c-3.4-3.4-5.5-8-5.8-12.8l-1.5-22.7c-0.8-12.1,9.2-22.1,21.3-21.3L64.2,21.4z"/><path fill="#444b54" d="M78.8,126.8c-3.5,0-6.7-1.4-9.2-3.8L25.4,78.8c-3.9-3.9-6.3-9.2-6.7-14.7c-0.1-1.7,1.1-3.1,2.8-3.2 c1.7-0.1,3.1,1.1,3.2,2.8c0.3,4.1,2,8,4.9,10.9l44.2,44.2c1.3,1.3,3.1,2,4.9,2c1.9,0,3.6-0.7,5-2l35.4-35.4 c1.3-1.3,2.1-3.1,2.1-4.9c0-1.9-0.7-3.6-2.1-4.9L74.9,29.3c-2.9-2.9-6.8-4.7-10.9-4.9l-22.7-1.5c-4.9-0.3-9.7,1.5-13.2,4.9 c-3.5,3.5-5.3,8.3-4.9,13.2c0.1,1.7-1.1,3.1-2.8,3.2c-1.7,0.1-3.1-1.1-3.2-2.8c-0.4-6.6,2-13.1,6.7-17.8 c4.7-4.7,11.2-7.1,17.8-6.7l22.7,1.5c5.6,0.4,10.8,2.7,14.7,6.7l44.2,44.2c5.1,5.1,5.1,13.3,0,18.4L88,123 C85.5,125.5,82.2,126.8,78.8,126.8z"/><path fill="#444b54" d="M24.7,56.5c-8.3,0-16.6-3.1-23.1-9.2l0,0c-1.1-1-1.3-2.6-0.6-3.8c1.1-1.6,3.3-1.8,4.6-0.6l0.1,0.1 c9.9,9.4,25.1,10.1,35.7,1.9c1.2-0.9,2.9-0.8,4,0.3l0.1,0.1c1.2,1.3,1,3.3-0.4,4.3C39.1,54.2,31.9,56.5,24.7,56.5z"/><path fill="#444b54" d="M3.8,76.9c-0.3,0-0.6,0-0.8-0.1c-1.6-0.5-2.5-2.1-2-3.7l0-0.2c0.5-1.6,2.1-2.5,3.7-2c1.6,0.5,2.5,2.1,2,3.7 l0,0.2C6.3,76,5.1,76.9,3.8,76.9z"/><path fill="#444b54" d="M3.8,76.7c-0.3,0-0.6,0-0.8-0.1c-1.6-0.5-2.5-2.1-2-3.7c1.4-4.7,3.8-9,7-12.7c1.1-1.2,3-1.4,4.2-0.3 c1.2,1.1,1.4,3,0.3,4.2c-2.7,3-4.6,6.5-5.8,10.4C6.3,75.9,5.1,76.7,3.8,76.7z"/><path fill="#71c2ff" d="M63.3,65.6l3.1,9.1c0.2,0.6,0.1,1.3-0.3,1.8l-5.7,7.7c-1,1.3,0,3.2,1.6,3.2l9.6-0.1c0.7,0,1.3,0.3,1.7,0.8 l5.5,7.8c1,1.4,3.1,1,3.5-0.6l2.8-9.1c0.2-0.6,0.7-1.1,1.3-1.3l9.1-2.8c1.6-0.5,1.9-2.6,0.6-3.5l-7.8-5.5c-0.5-0.4-0.9-1-0.8-1.7 l0.1-9.6c0-1.7-1.9-2.6-3.2-1.6l-7.7,5.7c-0.5,0.4-1.2,0.5-1.8,0.3L65.8,63C64.3,62.5,62.8,64,63.3,65.6z"/><path fill="#444b54" d="M50.8,56.7c-1,0-2-0.5-2.5-1.4c-0.9-1.4-0.5-3.3,0.9-4.1c1.8-1.1,3-3,3.2-5.2c0.2-1.9-0.3-3.7-1.5-5.1 c-1.2-1.5-2.8-2.4-4.7-2.6c-2.3-0.2-4.6,0.7-6.1,2.5c-1.1,1.3-3,1.4-4.2,0.4c-1.3-1.1-1.4-3-0.4-4.2c2.8-3.3,7-5,11.3-4.6 c3.4,0.4,6.6,2,8.7,4.7s3.2,6.1,2.8,9.5c-0.4,4-2.6,7.5-6,9.7C51.9,56.6,51.4,56.7,50.8,56.7z"/></svg>