<svg xmlns="http://www.w3.org/2000/svg" viewBox="0 0 128 128" width="256px" height="256px"><path fill="#fff" d="M107,50c0,23.7-19.3,43-43,43c-10.3,0-19.8-3.6-27.2-9.7C27.1,75.4,21,63.4,21,50C21,26.3,40.3,7,64,7S107,26.3,107,50z"/><path fill="#71c2ff" d="M64 61.4c-10.3 0-18.6-8.4-18.6-18.6S53.7 24.1 64 24.1s18.6 8.4 18.6 18.6S74.3 61.4 64 61.4zM64 30.1c-7 0-12.6 5.7-12.6 12.6S57 55.4 64 55.4s12.6-5.7 12.6-12.6S71 30.1 64 30.1zM44.8 79c-.9 0-1.7-.4-2.3-1.1-1.1-1.3-.9-3.2.4-4.2C48.8 68.7 56.3 66 64 66c1.7 0 3 1.3 3 3s-1.3 3-3 3c-6.3 0-12.5 2.2-17.3 6.3C46.1 78.7 45.5 79 44.8 79z"/><path fill="#71c2ff" d="M83,79c-0.7,0-1.4-0.2-1.9-0.7c-4.8-4-11-6.3-17.3-6.3c-1.7,0-3-1.3-3-3s1.3-3,3-3c7.7,0,15.2,2.7,21.2,7.7c1.3,1.1,1.4,3,0.4,4.2C84.7,78.6,83.9,79,83,79z"/><path fill="#444b54" d="M64,96c-10.6,0-21-3.7-29.1-10.4C24.1,76.8,18,63.8,18,50C18,24.6,38.6,4,64,4s46,20.6,46,46S89.4,96,64,96z M64,10c-22.1,0-40,17.9-40,40c0,12,5.3,23.3,14.7,31c7.1,5.8,16.1,9,25.3,9c22.1,0,40-17.9,40-40S86.1,10,64,10z"/><path fill="#71c2ff" d="M94,111H34c-1.7,0-3-1.3-3-3s1.3-3,3-3h60c1.7,0,3,1.3,3,3S95.7,111,94,111z"/><g><path fill="#71c2ff" d="M69,126H44c-1.7,0-3-1.3-3-3s1.3-3,3-3h25c1.7,0,3,1.3,3,3S70.7,126,69,126z"/></g><g><path fill="#71c2ff" d="M84,126c-0.8,0-1.6-0.3-2.1-0.9c-0.6-0.6-0.9-1.3-0.9-2.1c0-0.2,0-0.4,0.1-0.6c0-0.2,0.1-0.4,0.2-0.6c0.1-0.2,0.2-0.3,0.3-0.5c0.1-0.2,0.2-0.3,0.4-0.5c1.1-1.1,3.1-1.1,4.2,0c0.6,0.6,0.9,1.3,0.9,2.1s-0.3,1.6-0.9,2.1C85.6,125.7,84.8,126,84,126z"/></g></svg>